<svg width="352" height="352" viewBox="0 0 352 352" fill="none" xmlns="http://www.w3.org/2000/svg">
<rect x="32" y="32" width="288" height="288" fill="#FFAB75"/>
<rect x="96" y="160" width="32" height="32" fill="#537C24"/>
<rect width="32" height="32" transform="matrix(-1 0 0 1 256 160)" fill="#537C24"/>
<path d="M64 160V192H0V160H64Z" fill="#1E1E1E"/>
<path d="M64 224V256H0V224H64Z" fill="#1E1E1E"/>
<path d="M352 224V256H288V224H352Z" fill="#1E1E1E"/>
<path d="M352 160V192H288V160H352Z" fill="#1E1E1E"/>
<path d="M160 352H64V320H160V352Z" fill="#FFBE94"/>
<path d="M288 352H192V320H288V352Z" fill="#FFBE94"/>
<path d="M64 320H32V288H64V320Z" fill="#FFBE94"/>
<path d="M320 320H288V288H320V320Z" fill="#FFBE94"/>
<path d="M32 288H0V256H32V288Z" fill="#FFBE94"/>
<path d="M352 288H320V256H352V288Z" fill="#FFBE94"/>
<path d="M32 224H0V192H32V224Z" fill="#FFBE94"/>
<path d="M352 224H320V192H352V224Z" fill="#FFBE94"/>
<path d="M256 64H192V96H224V128H192V192H160V128H128V96H160V64H96V32H256V64Z" fill="#FFBE94"/>
<path d="M32 160H0V128H32V160Z" fill="#FFBE94"/>
<path d="M352 160H320V128H352V160Z" fill="#FFBE94"/>
<path d="M64 128H32V96H64V128Z" fill="#FFBE94"/>
<path d="M320 128H288V96H320V128Z" fill="#FFBE94"/>
<path d="M32 96H0V32H32V96Z" fill="#FFBE94"/>
<path d="M96 96H64V64H96V96Z" fill="#FFBE94"/>
<path d="M288 96H256V64H288V96Z" fill="#FFBE94"/>
<path d="M352 96H320V32H352V96Z" fill="#FFBE94"/>
<path d="M96 32H32V0H96V32Z" fill="#FFBE94"/>
<path d="M320 0V32H256V0H320Z" fill="#FFBE94"/>
<rect x="160" y="288" width="32" height="32" fill="white"/>
<path d="M192 304V320H160V304H192Z" fill="#CC4646"/>
<path d="M192 352H160V320H192V352Z" fill="#624B00"/>
<path d="M160 320H128V288H160V320Z" fill="#624B00"/>
<path d="M224 320H192V288H224V320Z" fill="#624B00"/>
<path d="M224 224V256H192V288H160V256H128V224H224Z" fill="#624B00"/>
<path d="M320 32V96H288V64H256V32H320Z" fill="#624B00"/>
<path d="M96 32V64H64V96H32V32H96Z" fill="#624B00"/>
</svg>
